<?xml version="1.0" encoding="UTF-8" standalone="no"?> <svg width="512" height="512" viewBox="0 0 512 512" fill="none" xmlns="http://www.w3.org/2000/svg">
<path fill-rule="evenodd" clip-rule="evenodd" d="M206.272 70.5023C222.132 66.2611 238.802 64 256 64C307.068 64 353.48 83.9378 387.875 116.454C355.088 143.692 318.207 166.171 278.291 182.833C258.654 147.742 235.019 110.86 206.272 70.5023ZM175.041 81.8529C121.774 106.658 81.7825 155.182 68.6412 213.85C82.9014 215.271 97.3658 215.999 112 215.999C159.498 215.999 205.206 208.333 247.954 194.171C228.213 159.337 204.31 122.496 175.041 81.8529ZM263.441 222.723C215.979 239.103 165.028 247.999 112 247.999C95.8878 247.999 79.9673 247.177 64.2782 245.574C64.0935 249.026 64 252.502 64 256C64 306.514 83.5073 352.472 115.4 386.751C152.794 326.218 211.68 280.367 281.413 259.843C275.907 247.616 269.937 235.273 263.441 222.723ZM293.975 289.539C228.385 307.839 173.253 351.21 139.557 408.673C171.857 433.345 212.217 448 256 448C283.82 448 310.258 442.083 334.124 431.439C324.511 381.351 312.267 335.748 293.975 289.539ZM363.521 415.093C354.177 368.766 342.383 325.897 325.701 282.801C338.2 280.956 350.989 280 364.001 280C392.096 280 419.151 284.456 444.496 292.701C434.668 343.478 404.832 387.119 363.521 415.093ZM313.134 252.415C307.145 238.81 300.619 225.098 293.481 211.166C335.628 193.237 374.579 169.253 409.241 140.305C433.57 172.479 448 212.554 448 256C448 257.42 447.985 258.836 447.954 260.249C421.365 252.281 393.183 248 364.001 248C346.65 248 329.653 249.513 313.134 252.415ZM256 32C132.288 32 32 132.288 32 256C32 379.712 132.288 480 256 480C379.712 480 480 379.712 480 256C480 132.288 379.712 32 256 32Z" fill="black"/>
</svg>
